<svg xmlns="http://www.w3.org/2000/svg" version="1.1" viewBox="-5.0 -10.0 110.0 135.0">
 <path d="m52.785 37.504c-7.5781 2.8984-12.48 10.477-12.48 18.723v5.1328c0 1.8906 1.5312 3.4219 3.4219 3.4219h12.105c1.8906 0 3.4219-1.5312 3.4219-3.4219v-5.1328c0-0.66797 0.44531-1.1133 0.66797-1.3359 10.699-4.2344 17.605-14.934 17.16-26.523-0.67188-13.816-12.039-25.184-25.859-25.852-7.5781-0.22266-14.711 2.2305-20.059 7.5781-4.5 4.3125-7.4219 10.043-8.2344 16.129-0.25 1.8555 1.2695 3.4844 3.1406 3.4844h12.875c1.3945 0 2.6289-0.91406 3.0078-2.2578 0.40234-1.4141 1.1875-2.7344 2.3633-3.7578 1.5586-1.5586 3.7891-2.4531 6.2422-2.2305 4.2344 0.22266 7.8008 3.7891 8.0234 8.0234-0.44922 3.5625-2.4531 6.6836-5.7969 8.0195z"/>
 <path d="m61.566 85.598c0 6.5742-5.3281 11.902-11.902 11.902-6.5742 0-11.902-5.3281-11.902-11.902 0-6.5742 5.3281-11.902 11.902-11.902 6.5742 0 11.902 5.3281 11.902 11.902"/>
<text x="0.0" y="117.5" font-size="5.0" font-weight="bold" font-family="Arbeit Regular, Helvetica, Arial-Unicode, Arial, Sans-serif" fill="#000000">Created by fathan fathur</text><text x="0.0" y="122.5" font-size="5.0" font-weight="bold" font-family="Arbeit Regular, Helvetica, Arial-Unicode, Arial, Sans-serif" fill="#000000">from Noun Project</text></svg>